<svg xmlns="http://www.w3.org/2000/svg" xmlns:xlink="http://www.w3.org/1999/xlink" aria-hidden="true" style="position:absolute;width:0;height:0;overflow:hidden" version="1.1">
    <defs>
        <symbol id="icon-codesandbox" viewBox="0 0 24 24">
            <title>
                codesandbox
            </title>
            <path d="M14.441 4.245l-2.441 1.41-2.441-1.41 1.936-1.106c0.112-0.064 0.232-0.105 0.355-0.125 0.218-0.034 0.445 0.003 0.654 0.124zM4 13.733l2.5 1.444v2.83l-1.995-1.14c-0.111-0.065-0.207-0.148-0.285-0.244-0.139-0.173-0.22-0.387-0.22-0.623zM17.5 18.007v-2.83l2.5-1.444v2.267c-0.001 0.121-0.025 0.246-0.070 0.362-0.080 0.206-0.225 0.384-0.426 0.5zM18.961 6.828l-6.961 4.027-6.961-4.027 2.51-1.435 3.951 2.283c0.319 0.184 0.697 0.173 1.001 0l3.95-2.282zM11.526 22.961c0.141 0.076 0.303 0.119 0.474 0.119 0.173 0 0.336-0.044 0.478-0.121 0.356-0.058 0.701-0.18 1.017-0.36l3.198-1.828c0.218-0.043 0.411-0.157 0.554-0.316l3.249-1.857c0.618-0.357 1.061-0.898 1.299-1.514 0.133-0.342 0.202-0.707 0.205-1.084v-8c0-0.478-0.113-0.931-0.314-1.334-0.022-0.071-0.052-0.14-0.091-0.207-0.046-0.079-0.1-0.149-0.162-0.21-0.031-0.043-0.064-0.086-0.097-0.127-0.23-0.286-0.512-0.528-0.831-0.715l-3.258-1.861c-0.147-0.167-0.343-0.276-0.553-0.317l-3.197-1.827c-0.61-0.352-1.3-0.465-1.953-0.364-0.364 0.057-0.715 0.179-1.038 0.363l-3.2 1.828c-0.21 0.041-0.406 0.15-0.553 0.316l-3.249 1.857c-0.383 0.221-0.699 0.513-0.941 0.85-0.060 0.060-0.114 0.13-0.159 0.207-0.039 0.068-0.070 0.138-0.092 0.21-0.040 0.081-0.076 0.163-0.108 0.246-0.132 0.343-0.201 0.708-0.204 1.078v8.007c0.001 0.71 0.248 1.364 0.664 1.878 0.23 0.286 0.512 0.528 0.831 0.715l3.258 1.862c0.142 0.16 0.335 0.274 0.554 0.316l3.197 1.827c0.324 0.187 0.67 0.307 1.022 0.362zM11 12.587v7.991l-2.5-1.428v-4.55c0-0.368-0.199-0.69-0.5-0.866l-4-2.311v-2.885zM13 20.578v-7.991l7-4.049v2.885l-4 2.311c-0.319 0.184-0.498 0.517-0.5 0.866v4.55z"/>
        </symbol>
        <symbol id="icon-headphones" viewBox="0 0 24 24">
            <title>
                headphones
            </title>
            <path d="M20 19c0 0.276-0.111 0.525-0.293 0.707s-0.431 0.293-0.707 0.293h-1c-0.276 0-0.525-0.111-0.707-0.293s-0.293-0.431-0.293-0.707v-3c0-0.276 0.111-0.525 0.293-0.707s0.431-0.293 0.707-0.293h2v3zM4 19v-4h2c0.276 0 0.525 0.111 0.707 0.293s0.293 0.431 0.293 0.707v3c0 0.276-0.111 0.525-0.293 0.707s-0.431 0.293-0.707 0.293h-1c-0.276 0-0.525-0.111-0.707-0.293s-0.293-0.431-0.293-0.707zM2 19c0 0.828 0.337 1.58 0.879 2.121s1.293 0.879 2.121 0.879h1c0.828 0 1.58-0.337 2.121-0.879s0.879-1.293 0.879-2.121v-3c0-0.828-0.337-1.58-0.879-2.121s-1.293-0.879-2.121-0.879h-2v-1c0-2.209 0.894-4.208 2.343-5.657s3.448-2.343 5.657-2.343 4.208 0.894 5.657 2.343 2.343 3.448 2.343 5.657v1h-2c-0.828 0-1.58 0.337-2.121 0.879s-0.879 1.293-0.879 2.121v3c0 0.828 0.337 1.58 0.879 2.121s1.293 0.879 2.121 0.879h1c0.828 0 1.58-0.337 2.121-0.879s0.879-1.293 0.879-2.121v-7c0-2.761-1.12-5.263-2.929-7.071s-4.31-2.929-7.071-2.929-5.263 1.12-7.071 2.929-2.929 4.31-2.929 7.071v6z"/>
        </symbol>
        <symbol id="icon-heart" viewBox="0 0 24 24">
            <title>
                heart
            </title>
            <path d="M20.133 5.317c0.88 0.881 1.319 2.031 1.319 3.184s-0.44 2.303-1.319 3.182l-8.133 8.133-8.133-8.133c-0.879-0.879-1.318-2.029-1.318-3.183s0.439-2.304 1.318-3.183 2.029-1.318 3.183-1.318 2.304 0.439 3.183 1.318l1.060 1.060c0.391 0.391 1.024 0.391 1.414 0l1.062-1.062c0.879-0.879 2.029-1.318 3.182-1.317s2.303 0.44 3.182 1.319zM21.547 3.903c-1.269-1.269-2.934-1.904-4.596-1.905s-3.327 0.634-4.597 1.903l-0.354 0.355-0.353-0.353c-1.269-1.269-2.935-1.904-4.597-1.904s-3.328 0.635-4.597 1.904-1.904 2.935-1.904 4.597 0.635 3.328 1.904 4.597l8.84 8.84c0.391 0.391 1.024 0.391 1.414 0l8.84-8.84c1.269-1.269 1.904-2.934 1.905-4.596s-0.634-3.327-1.905-4.598z"/>
        </symbol>
        <symbol id="icon-share-2" viewBox="0 0 24 24">
            <title>
                share-2
            </title>
            <path d="M16.214 18.098c0.025-0.033 0.048-0.067 0.070-0.104 0.020-0.035 0.038-0.071 0.054-0.107 0.073-0.108 0.156-0.209 0.248-0.301 0.363-0.363 0.861-0.586 1.414-0.586s1.051 0.223 1.414 0.586 0.586 0.861 0.586 1.414-0.223 1.051-0.586 1.414-0.861 0.586-1.414 0.586-1.051-0.223-1.414-0.586-0.586-0.861-0.586-1.414c0-0.325 0.077-0.631 0.214-0.902zM16.301 6.056c-0.009-0.017-0.018-0.034-0.028-0.051s-0.020-0.034-0.031-0.050c-0.154-0.283-0.242-0.608-0.242-0.955 0-0.553 0.223-1.051 0.586-1.414s0.861-0.586 1.414-0.586 1.051 0.223 1.414 0.586 0.586 0.861 0.586 1.414-0.223 1.051-0.586 1.414-0.861 0.586-1.414 0.586-1.051-0.223-1.414-0.586c-0.108-0.108-0.204-0.228-0.285-0.358zM7.699 10.944c0.009 0.017 0.018 0.034 0.028 0.051s0.020 0.034 0.031 0.050c0.154 0.283 0.242 0.608 0.242 0.955s-0.088 0.672-0.243 0.956c-0.011 0.016-0.021 0.033-0.031 0.050s-0.019 0.033-0.027 0.050c-0.081 0.13-0.177 0.25-0.285 0.358-0.363 0.363-0.861 0.586-1.414 0.586s-1.051-0.223-1.414-0.586-0.586-0.861-0.586-1.414 0.223-1.051 0.586-1.414 0.861-0.586 1.414-0.586 1.051 0.223 1.414 0.586c0.108 0.108 0.204 0.228 0.285 0.358zM14.15 6.088l-5.308 3.097c-0.004-0.005-0.009-0.009-0.014-0.014-0.722-0.722-1.724-1.171-2.828-1.171s-2.106 0.449-2.828 1.172-1.172 1.724-1.172 2.828 0.449 2.106 1.172 2.828 1.724 1.172 2.828 1.172 2.106-0.449 2.828-1.172c0.005-0.005 0.009-0.009 0.014-0.014l5.309 3.094c-0.098 0.347-0.151 0.714-0.151 1.092 0 1.104 0.449 2.106 1.172 2.828s1.724 1.172 2.828 1.172 2.106-0.449 2.828-1.172 1.172-1.724 1.172-2.828-0.449-2.106-1.172-2.828-1.724-1.172-2.828-1.172-2.106 0.449-2.828 1.172c-0.003 0.003-0.007 0.007-0.010 0.010l-5.312-3.095c0.098-0.346 0.15-0.71 0.15-1.087s-0.052-0.742-0.15-1.088l5.308-3.098c0.004 0.005 0.009 0.009 0.014 0.014 0.722 0.723 1.724 1.172 2.828 1.172s2.106-0.449 2.828-1.172 1.172-1.724 1.172-2.828-0.449-2.106-1.172-2.828-1.724-1.172-2.828-1.172-2.106 0.449-2.828 1.172-1.172 1.724-1.172 2.828c0 0.377 0.052 0.742 0.15 1.088z"/>
        </symbol>
    </defs>
</svg>
